<?xml version="1.0" encoding="UTF-8"?>
<!DOCTYPE svg PUBLIC "-//W3C//DTD SVG 1.1//EN" "http://www.w3.org/Graphics/SVG/1.1/DTD/svg11.dtd">
<!-- Creator: CorelDRAW 2019 (64 Bit) -->
<svg xmlns="http://www.w3.org/2000/svg" xml:space="preserve" width="114.829mm" height="33.529mm" version="1.1" style="shape-rendering:geometricPrecision; text-rendering:geometricPrecision; image-rendering:optimizeQuality; fill-rule:evenodd; clip-rule:evenodd"
viewBox="0 0 11482.9 3352.9"
 xmlns:xlink="http://www.w3.org/1999/xlink"
 xmlns:xodm="http://www.corel.com/coreldraw/odm/2003">
 <defs>
  <style type="text/css">
   <![CDATA[
    .fil1 {fill:none}
    .fil0 {fill:#0875F6}
   ]]>
  </style>
    <clipPath id="id0">
     <path d="M1917.64 142.14l-1374.66 0c-365.8,0 -550.42,177.57 -550.42,529.29l0 1882.39c0,46.11 24.76,74.49 78.12,74.49l415.53 0c49.73,0 81.74,-28.38 81.74,-74.49l0 -71.47c0,-174.35 73.48,-269.37 256.09,-287.69l1093.6 0c401.24,0 582.43,-173.95 582.43,-554.05l0 -944.42c0,-380.1 -181.19,-554.05 -582.43,-554.05zm7.65 1338.62c0,206.16 -46.71,248.63 -291.92,248.63l-582.44 0c-245.01,0 -401.44,81.74 -483.18,241.59l0 -1161.04c0,-159.85 39.06,-202.54 234.34,-202.54l831.28 0c245.21,0 291.92,42.69 291.92,248.64l0 624.72z"/>
    </clipPath>
      <clipPath id="id1">
       <path d="M1917.64 142.14l-1374.66 0c-365.8,0 -550.42,177.57 -550.42,529.29l0 1882.39c0,46.11 24.76,74.49 78.12,74.49l415.53 0c49.73,0 81.74,-28.38 81.74,-74.49l0 -71.47c0,-174.35 73.48,-269.37 256.09,-287.69l1093.6 0c401.24,0 582.43,-173.95 582.43,-554.05l0 -944.42c0,-380.1 -181.19,-554.05 -582.43,-554.05zm7.65 1338.62c0,206.16 -46.71,248.63 -291.92,248.63l-582.44 0c-245.01,0 -401.44,81.74 -483.18,241.59l0 -1161.04c0,-159.85 39.06,-202.54 234.34,-202.54l831.28 0c245.21,0 291.92,42.69 291.92,248.64l0 624.72z"/>
      </clipPath>
      <clipPath id="id2">
       <path d="M1917.64 142.14l-1374.66 0c-365.8,0 -550.42,177.57 -550.42,529.29l0 1882.39c0,46.11 24.76,74.49 78.12,74.49l415.53 0c49.73,0 81.74,-28.38 81.74,-74.49l0 -71.47c0,-174.35 73.48,-269.37 256.09,-287.69l1093.6 0c401.24,0 582.43,-173.95 582.43,-554.05l0 -944.42c0,-380.1 -181.19,-554.05 -582.43,-554.05zm7.65 1338.62c0,206.16 -46.71,248.63 -291.92,248.63l-582.44 0c-245.01,0 -401.44,81.74 -483.18,241.59l0 -1161.04c0,-159.85 39.06,-202.54 234.34,-202.54l831.28 0c245.21,0 291.92,42.69 291.92,248.64l0 624.72z"/>
      </clipPath>
    <clipPath id="id3">
     <path d="M3817.75 1182.79c-316.07,0 -451.17,159.86 -451.17,429.84l0 948.24c0,42.68 -21.35,67.44 -71.07,67.44l-376.47 0c-49.74,0 -74.51,-24.76 -74.51,-67.44l0 -1733.21c0,-42.69 24.77,-67.65 74.51,-67.65l316.07 0c46.3,0 71.07,24.96 71.07,67.65l0 279.64c60.4,-230.72 234.55,-348.09 543.58,-348.09l127.85 0c46.09,0 70.86,24.96 70.86,67.64l0 288.5c0,46.11 -24.77,67.44 -70.86,67.44l-159.86 0z"/>
    </clipPath>
      <clipPath id="id4">
       <path d="M3817.75 1182.79c-316.07,0 -451.17,159.86 -451.17,429.84l0 948.24c0,42.68 -21.35,67.44 -71.07,67.44l-376.47 0c-49.74,0 -74.51,-24.76 -74.51,-67.44l0 -1733.21c0,-42.69 24.77,-67.65 74.51,-67.65l316.07 0c46.3,0 71.07,24.96 71.07,67.65l0 279.64c60.4,-230.72 234.55,-348.09 543.58,-348.09l127.85 0c46.09,0 70.86,24.96 70.86,67.64l0 288.5c0,46.11 -24.77,67.44 -70.86,67.44l-159.86 0z"/>
      </clipPath>
      <clipPath id="id5">
       <path d="M3817.75 1182.79c-316.07,0 -451.17,159.86 -451.17,429.84l0 948.24c0,42.68 -21.35,67.44 -71.07,67.44l-376.47 0c-49.74,0 -74.51,-24.76 -74.51,-67.44l0 -1733.21c0,-42.69 24.77,-67.65 74.51,-67.65l316.07 0c46.3,0 71.07,24.96 71.07,67.65l0 279.64c60.4,-230.72 234.55,-348.09 543.58,-348.09l127.85 0c46.09,0 70.86,24.96 70.86,67.64l0 288.5c0,46.11 -24.77,67.44 -70.86,67.44l-159.86 0z"/>
      </clipPath>
    <clipPath id="id6">
     <path d="M6268.29 2120.37c0,351.71 -156.23,507.94 -529.08,507.94l-923.48 0c-369.44,0 -529.3,-156.23 -529.3,-507.94l0 -852.01c0,-351.52 159.86,-507.95 529.3,-507.95l923.48 0c372.85,0 529.08,156.43 529.08,507.95l0 852.01zm-522.05 -717.32c0,-184.82 -35.42,-220.26 -255.66,-220.26l-422.81 0c-223.65,0 -259.29,35.44 -259.29,220.26l0 582.43c0,184.62 35.64,220.25 259.29,220.25l422.81 0c220.24,0 255.66,-35.63 255.66,-220.25l0 -582.43z"/>
    </clipPath>
      <clipPath id="id7">
       <path d="M6268.29 2120.37c0,351.71 -156.23,507.94 -529.08,507.94l-923.48 0c-369.44,0 -529.3,-156.23 -529.3,-507.94l0 -852.01c0,-351.52 159.86,-507.95 529.3,-507.95l923.48 0c372.85,0 529.08,156.43 529.08,507.95l0 852.01zm-522.05 -717.32c0,-184.82 -35.42,-220.26 -255.66,-220.26l-422.81 0c-223.65,0 -259.29,35.44 -259.29,220.26l0 582.43c0,184.62 35.64,220.25 259.29,220.25l422.81 0c220.24,0 255.66,-35.63 255.66,-220.25l0 -582.43z"/>
      </clipPath>
      <clipPath id="id8">
       <path d="M6268.29 2120.37c0,351.71 -156.23,507.94 -529.08,507.94l-923.48 0c-369.44,0 -529.3,-156.23 -529.3,-507.94l0 -852.01c0,-351.52 159.86,-507.95 529.3,-507.95l923.48 0c372.85,0 529.08,156.43 529.08,507.95l0 852.01zm-522.05 -717.32c0,-184.82 -35.42,-220.26 -255.66,-220.26l-422.81 0c-223.65,0 -259.29,35.44 -259.29,220.26l0 582.43c0,184.62 35.64,220.25 259.29,220.25l422.81 0c220.24,0 255.66,-35.63 255.66,-220.25l0 -582.43z"/>
      </clipPath>
    <clipPath id="id9">
     <path d="M6793.94 1182.79l-177.77 0c-46.3,0 -71.07,-21.33 -71.07,-67.44l0 -287.69c0,-42.69 24.77,-67.65 71.07,-67.65l177.59 0 0 -230.72c0.18,-351.71 184.81,-529.28 550.62,-529.28l436.88 0c49.72,0 71.07,24.96 71.07,67.44l0 287.7c0,46.3 -21.35,67.44 -71.07,67.44l-230.74 0c-195.48,0 -234.53,42.68 -234.53,202.53l0 134.89 465.27 0c49.72,0 71.07,24.96 71.07,67.65l0 287.69c0,46.11 -21.35,67.44 -71.07,67.44l-465.27 0 0 1378.08c0,42.68 -24.76,67.44 -74.51,67.44l-376.47 0c-49.72,0 -71.07,-24.76 -71.07,-67.44l0 -1378.08z"/>
    </clipPath>
      <clipPath id="id10">
       <path d="M6793.94 1182.79l-177.77 0c-46.3,0 -71.07,-21.33 -71.07,-67.44l0 -287.69c0,-42.69 24.77,-67.65 71.07,-67.65l177.59 0 0 -230.72c0.18,-351.71 184.81,-529.28 550.62,-529.28l436.88 0c49.72,0 71.07,24.96 71.07,67.44l0 287.7c0,46.3 -21.35,67.44 -71.07,67.44l-230.74 0c-195.48,0 -234.53,42.68 -234.53,202.53l0 134.89 465.27 0c49.72,0 71.07,24.96 71.07,67.65l0 287.69c0,46.11 -21.35,67.44 -71.07,67.44l-465.27 0 0 1378.08c0,42.68 -24.76,67.44 -74.51,67.44l-376.47 0c-49.72,0 -71.07,-24.76 -71.07,-67.44l0 -1378.08z"/>
      </clipPath>
      <clipPath id="id11">
       <path d="M6793.94 1182.79l-177.77 0c-46.3,0 -71.07,-21.33 -71.07,-67.44l0 -287.69c0,-42.69 24.77,-67.65 71.07,-67.65l177.59 0 0 -230.72c0.18,-351.71 184.81,-529.28 550.62,-529.28l436.88 0c49.72,0 71.07,24.96 71.07,67.44l0 287.7c0,46.3 -21.35,67.44 -71.07,67.44l-230.74 0c-195.48,0 -234.53,42.68 -234.53,202.53l0 134.89 465.27 0c49.72,0 71.07,24.96 71.07,67.65l0 287.69c0,46.11 -21.35,67.44 -71.07,67.44l-465.27 0 0 1378.08c0,42.68 -24.76,67.44 -74.51,67.44l-376.47 0c-49.72,0 -71.07,-24.76 -71.07,-67.44l0 -1378.08z"/>
      </clipPath>
    <clipPath id="id12">
     <path d="M8243.09 1182.79l-177.38 0c-46.09,0 -70.85,-21.33 -70.85,-67.44l0 -287.69c0,-42.69 24.76,-67.65 70.85,-67.65l177.78 0 0 -230.72c-0.4,-351.71 184.62,-529.28 550.01,-529.28l436.88 0c49.74,0 71.07,24.96 71.07,67.44l0 287.7c0,46.3 -21.33,67.44 -71.07,67.44l-230.9 0c-195.29,0 -234.34,42.68 -234.34,202.53l0 134.89 465.24 0c49.74,0 71.07,24.96 71.07,67.65l0 287.69c0,46.11 -21.33,67.44 -71.07,67.44l-465.24 0 0 1378.08c0,42.68 -24.98,67.44 -74.69,67.44l-376.5 0c-49.72,0 -70.86,-24.76 -70.86,-67.44l0 -1378.08z"/>
    </clipPath>
      <clipPath id="id13">
       <path d="M8243.09 1182.79l-177.38 0c-46.09,0 -70.85,-21.33 -70.85,-67.44l0 -287.69c0,-42.69 24.76,-67.65 70.85,-67.65l177.78 0 0 -230.72c-0.4,-351.71 184.62,-529.28 550.01,-529.28l436.88 0c49.74,0 71.07,24.96 71.07,67.44l0 287.7c0,46.3 -21.33,67.44 -71.07,67.44l-230.9 0c-195.29,0 -234.34,42.68 -234.34,202.53l0 134.89 465.24 0c49.74,0 71.07,24.96 71.07,67.65l0 287.69c0,46.11 -21.33,67.44 -71.07,67.44l-465.24 0 0 1378.08c0,42.68 -24.98,67.44 -74.69,67.44l-376.5 0c-49.72,0 -70.86,-24.76 -70.86,-67.44l0 -1378.08z"/>
      </clipPath>
      <clipPath id="id14">
       <path d="M8243.09 1182.79l-177.38 0c-46.09,0 -70.85,-21.33 -70.85,-67.44l0 -287.69c0,-42.69 24.76,-67.65 70.85,-67.65l177.78 0 0 -230.72c-0.4,-351.71 184.62,-529.28 550.01,-529.28l436.88 0c49.74,0 71.07,24.96 71.07,67.44l0 287.7c0,46.3 -21.33,67.44 -71.07,67.44l-230.9 0c-195.29,0 -234.34,42.68 -234.34,202.53l0 134.89 465.24 0c49.74,0 71.07,24.96 71.07,67.65l0 287.69c0,46.11 -21.33,67.44 -71.07,67.44l-465.24 0 0 1378.08c0,42.68 -24.98,67.44 -74.69,67.44l-376.5 0c-49.72,0 -70.86,-24.76 -70.86,-67.44l0 -1378.08z"/>
      </clipPath>
    <clipPath id="id15">
     <path d="M10888.92 3352.89l-774.3 0c-347.9,0 -497.07,-134.89 -497.07,-468.9l0 -35.43c-1.03,-9.52 0.08,-19.18 3.31,-28.2 3.2,-9.05 8.38,-17.25 15.21,-24 6.8,-6.75 15.03,-11.88 24.1,-15 9.08,-3.12 18.71,-4.18 28.23,-3.07l362.4 0c49.72,0 74.48,24.98 74.48,71.07l0 17.72c0,71.07 39.27,99.46 117.37,99.46l447.55 0c213.01,0 266.35,-53.15 266.35,-234.34l0 -560.29c-81.73,159.85 -237.97,241.59 -483.18,241.59l-362.37 0c-369.44,0 -532.93,-156.23 -532.93,-507.95l0 -1077.89c-0.47,-9.31 1.06,-18.61 4.53,-27.27 3.44,-8.66 8.73,-16.47 15.47,-22.9 6.75,-6.42 14.79,-11.31 23.63,-14.33 8.81,-3.02 18.18,-4.09 27.44,-3.15l380.13 0c46.09,0 71.06,24.96 71.06,67.65l0 944.01c0,184.62 39.06,220.25 259.29,220.25l269.99 0c234.34,0 326.76,-96.03 326.76,-291.32l0 -872.94c0,-42.69 24.76,-67.65 71.06,-67.65l380.29 0c9.1,-0.88 18.28,0.27 26.88,3.36 8.6,3.09 16.4,8.05 22.83,14.52 6.46,6.47 11.41,14.29 14.45,22.89 3.07,8.61 4.21,17.79 3.31,26.88l0 1960.5c-0.21,372.66 -199.13,564.73 -586.27,564.73z"/>
    </clipPath>
      <clipPath id="id16">
       <path d="M10888.92 3352.89l-774.3 0c-347.9,0 -497.07,-134.89 -497.07,-468.9l0 -35.43c-1.03,-9.52 0.08,-19.18 3.31,-28.2 3.2,-9.05 8.38,-17.25 15.21,-24 6.8,-6.75 15.03,-11.88 24.1,-15 9.08,-3.12 18.71,-4.18 28.23,-3.07l362.4 0c49.72,0 74.48,24.98 74.48,71.07l0 17.72c0,71.07 39.27,99.46 117.37,99.46l447.55 0c213.01,0 266.35,-53.15 266.35,-234.34l0 -560.29c-81.73,159.85 -237.97,241.59 -483.18,241.59l-362.37 0c-369.44,0 -532.93,-156.23 -532.93,-507.95l0 -1077.89c-0.47,-9.31 1.06,-18.61 4.53,-27.27 3.44,-8.66 8.73,-16.47 15.47,-22.9 6.75,-6.42 14.79,-11.31 23.63,-14.33 8.81,-3.02 18.18,-4.09 27.44,-3.15l380.13 0c46.09,0 71.06,24.96 71.06,67.65l0 944.01c0,184.62 39.06,220.25 259.29,220.25l269.99 0c234.34,0 326.76,-96.03 326.76,-291.32l0 -872.94c0,-42.69 24.76,-67.65 71.06,-67.65l380.29 0c9.1,-0.88 18.28,0.27 26.88,3.36 8.6,3.09 16.4,8.05 22.83,14.52 6.46,6.47 11.41,14.29 14.45,22.89 3.07,8.61 4.21,17.79 3.31,26.88l0 1960.5c-0.21,372.66 -199.13,564.73 -586.27,564.73z"/>
      </clipPath>
      <clipPath id="id17">
       <path d="M10888.92 3352.89l-774.3 0c-347.9,0 -497.07,-134.89 -497.07,-468.9l0 -35.43c-1.03,-9.52 0.08,-19.18 3.31,-28.2 3.2,-9.05 8.38,-17.25 15.21,-24 6.8,-6.75 15.03,-11.88 24.1,-15 9.08,-3.12 18.71,-4.18 28.23,-3.07l362.4 0c49.72,0 74.48,24.98 74.48,71.07l0 17.72c0,71.07 39.27,99.46 117.37,99.46l447.55 0c213.01,0 266.35,-53.15 266.35,-234.34l0 -560.29c-81.73,159.85 -237.97,241.59 -483.18,241.59l-362.37 0c-369.44,0 -532.93,-156.23 -532.93,-507.95l0 -1077.89c-0.47,-9.31 1.06,-18.61 4.53,-27.27 3.44,-8.66 8.73,-16.47 15.47,-22.9 6.75,-6.42 14.79,-11.31 23.63,-14.33 8.81,-3.02 18.18,-4.09 27.44,-3.15l380.13 0c46.09,0 71.06,24.96 71.06,67.65l0 944.01c0,184.62 39.06,220.25 259.29,220.25l269.99 0c234.34,0 326.76,-96.03 326.76,-291.32l0 -872.94c0,-42.69 24.76,-67.65 71.06,-67.65l380.29 0c9.1,-0.88 18.28,0.27 26.88,3.36 8.6,3.09 16.4,8.05 22.83,14.52 6.46,6.47 11.41,14.29 14.45,22.89 3.07,8.61 4.21,17.79 3.31,26.88l0 1960.5c-0.21,372.66 -199.13,564.73 -586.27,564.73z"/>
      </clipPath>
 </defs>
 <g id="Camada_x0020_1">
  <metadata id="CorelCorpID_0Corel-Layer"/>
  <g id="_2958422772464">
   <path class="fil0" d="M1917.64 142.14l-1374.66 0c-365.8,0 -550.42,177.57 -550.42,529.29l0 1882.39c0,46.11 24.76,74.49 78.12,74.49l415.53 0c49.73,0 81.74,-28.38 81.74,-74.49l0 -71.47c0,-174.35 73.48,-269.37 256.09,-287.69l1093.6 0c401.24,0 582.43,-173.95 582.43,-554.05l0 -944.42c0,-380.1 -181.19,-554.05 -582.43,-554.05zm7.65 1338.62c0,206.16 -46.71,248.63 -291.92,248.63l-582.44 0c-245.01,0 -401.44,81.74 -483.18,241.59l0 -1161.04c0,-159.85 39.06,-202.54 234.34,-202.54l831.28 0c245.21,0 291.92,42.69 291.92,248.64l0 624.72z"/>
   <g style="clip-path:url(#id0)">
    <g>
     <g>
     </g>
     <g>
     </g>
     <g style="clip-path:url(#id1)">
      <image x="-100.59" y="-93.09" width="11677.7" height="3478.56" xlink:href="logo_Images\logo_ImgID1.png"/>
     </g>
     <g style="clip-path:url(#id2)">
     </g>
    </g>
   </g>
   <path class="fil1" d="M1917.64 142.14l-1374.66 0c-365.8,0 -550.42,177.57 -550.42,529.29l0 1882.39c0,46.11 24.76,74.49 78.12,74.49l415.53 0c49.73,0 81.74,-28.38 81.74,-74.49l0 -71.47c0,-174.35 73.48,-269.37 256.09,-287.69l1093.6 0c401.24,0 582.43,-173.95 582.43,-554.05l0 -944.42c0,-380.1 -181.19,-554.05 -582.43,-554.05zm7.65 1338.62c0,206.16 -46.71,248.63 -291.92,248.63l-582.44 0c-245.01,0 -401.44,81.74 -483.18,241.59l0 -1161.04c0,-159.85 39.06,-202.54 234.34,-202.54l831.28 0c245.21,0 291.92,42.69 291.92,248.64l0 624.72z"/>
   <path class="fil0" d="M3817.75 1182.79c-316.07,0 -451.17,159.86 -451.17,429.84l0 948.24c0,42.68 -21.35,67.44 -71.07,67.44l-376.47 0c-49.74,0 -74.51,-24.76 -74.51,-67.44l0 -1733.21c0,-42.69 24.77,-67.65 74.51,-67.65l316.07 0c46.3,0 71.07,24.96 71.07,67.65l0 279.64c60.4,-230.72 234.55,-348.09 543.58,-348.09l127.85 0c46.09,0 70.86,24.96 70.86,67.64l0 288.5c0,46.11 -24.77,67.44 -70.86,67.44l-159.86 0z"/>
   <g style="clip-path:url(#id3)">
    <g>
     <g>
     </g>
     <g>
     </g>
     <g style="clip-path:url(#id4)">
      <image x="-100.59" y="-93.09" width="11677.7" height="3478.56" xlink:href="logo_Images\logo_ImgID2.png"/>
     </g>
     <g style="clip-path:url(#id5)">
     </g>
    </g>
   </g>
   <path class="fil1" d="M3817.75 1182.79c-316.07,0 -451.17,159.86 -451.17,429.84l0 948.24c0,42.68 -21.35,67.44 -71.07,67.44l-376.47 0c-49.74,0 -74.51,-24.76 -74.51,-67.44l0 -1733.21c0,-42.69 24.77,-67.65 74.51,-67.65l316.07 0c46.3,0 71.07,24.96 71.07,67.65l0 279.64c60.4,-230.72 234.55,-348.09 543.58,-348.09l127.85 0c46.09,0 70.86,24.96 70.86,67.64l0 288.5c0,46.11 -24.77,67.44 -70.86,67.44l-159.86 0z"/>
   <path class="fil0" d="M6268.29 2120.37c0,351.71 -156.23,507.94 -529.08,507.94l-923.48 0c-369.44,0 -529.3,-156.23 -529.3,-507.94l0 -852.01c0,-351.52 159.86,-507.95 529.3,-507.95l923.48 0c372.85,0 529.08,156.43 529.08,507.95l0 852.01zm-522.05 -717.32c0,-184.82 -35.42,-220.26 -255.66,-220.26l-422.81 0c-223.65,0 -259.29,35.44 -259.29,220.26l0 582.43c0,184.62 35.64,220.25 259.29,220.25l422.81 0c220.24,0 255.66,-35.63 255.66,-220.25l0 -582.43z"/>
   <g style="clip-path:url(#id6)">
    <g>
     <g>
     </g>
     <g>
     </g>
     <g style="clip-path:url(#id7)">
      <image x="-100.59" y="-93.09" width="11677.7" height="3478.56" xlink:href="logo_Images\logo_ImgID3.png"/>
     </g>
     <g style="clip-path:url(#id8)">
     </g>
    </g>
   </g>
   <path class="fil1" d="M6268.29 2120.37c0,351.71 -156.23,507.94 -529.08,507.94l-923.48 0c-369.44,0 -529.3,-156.23 -529.3,-507.94l0 -852.01c0,-351.52 159.86,-507.95 529.3,-507.95l923.48 0c372.85,0 529.08,156.43 529.08,507.95l0 852.01zm-522.05 -717.32c0,-184.82 -35.42,-220.26 -255.66,-220.26l-422.81 0c-223.65,0 -259.29,35.44 -259.29,220.26l0 582.43c0,184.62 35.64,220.25 259.29,220.25l422.81 0c220.24,0 255.66,-35.63 255.66,-220.25l0 -582.43z"/>
   <path class="fil0" d="M6793.94 1182.79l-177.77 0c-46.3,0 -71.07,-21.33 -71.07,-67.44l0 -287.69c0,-42.69 24.77,-67.65 71.07,-67.65l177.59 0 0 -230.72c0.18,-351.71 184.81,-529.28 550.62,-529.28l436.88 0c49.72,0 71.07,24.96 71.07,67.44l0 287.7c0,46.3 -21.35,67.44 -71.07,67.44l-230.74 0c-195.48,0 -234.53,42.68 -234.53,202.53l0 134.89 465.27 0c49.72,0 71.07,24.96 71.07,67.65l0 287.69c0,46.11 -21.35,67.44 -71.07,67.44l-465.27 0 0 1378.08c0,42.68 -24.76,67.44 -74.51,67.44l-376.47 0c-49.72,0 -71.07,-24.76 -71.07,-67.44l0 -1378.08z"/>
   <g style="clip-path:url(#id9)">
    <g>
     <g>
     </g>
     <g>
     </g>
     <g style="clip-path:url(#id10)">
      <image x="-100.59" y="-93.09" width="11677.7" height="3478.56" xlink:href="logo_Images\logo_ImgID4.png"/>
     </g>
     <g style="clip-path:url(#id11)">
     </g>
    </g>
   </g>
   <path class="fil1" d="M6793.94 1182.79l-177.77 0c-46.3,0 -71.07,-21.33 -71.07,-67.44l0 -287.69c0,-42.69 24.77,-67.65 71.07,-67.65l177.59 0 0 -230.72c0.18,-351.71 184.81,-529.28 550.62,-529.28l436.88 0c49.72,0 71.07,24.96 71.07,67.44l0 287.7c0,46.3 -21.35,67.44 -71.07,67.44l-230.74 0c-195.48,0 -234.53,42.68 -234.53,202.53l0 134.89 465.27 0c49.72,0 71.07,24.96 71.07,67.65l0 287.69c0,46.11 -21.35,67.44 -71.07,67.44l-465.27 0 0 1378.08c0,42.68 -24.76,67.44 -74.51,67.44l-376.47 0c-49.72,0 -71.07,-24.76 -71.07,-67.44l0 -1378.08z"/>
   <path class="fil0" d="M8243.09 1182.79l-177.38 0c-46.09,0 -70.85,-21.33 -70.85,-67.44l0 -287.69c0,-42.69 24.76,-67.65 70.85,-67.65l177.78 0 0 -230.72c-0.4,-351.71 184.62,-529.28 550.01,-529.28l436.88 0c49.74,0 71.07,24.96 71.07,67.44l0 287.7c0,46.3 -21.33,67.44 -71.07,67.44l-230.9 0c-195.29,0 -234.34,42.68 -234.34,202.53l0 134.89 465.24 0c49.74,0 71.07,24.96 71.07,67.65l0 287.69c0,46.11 -21.33,67.44 -71.07,67.44l-465.24 0 0 1378.08c0,42.68 -24.98,67.44 -74.69,67.44l-376.5 0c-49.72,0 -70.86,-24.76 -70.86,-67.44l0 -1378.08z"/>
   <g style="clip-path:url(#id12)">
    <g>
     <g>
     </g>
     <g>
     </g>
     <g style="clip-path:url(#id13)">
      <image x="-100.59" y="-93.09" width="11677.7" height="3478.56" xlink:href="logo_Images\logo_ImgID5.png"/>
     </g>
     <g style="clip-path:url(#id14)">
     </g>
    </g>
   </g>
   <path class="fil1" d="M8243.09 1182.79l-177.38 0c-46.09,0 -70.85,-21.33 -70.85,-67.44l0 -287.69c0,-42.69 24.76,-67.65 70.85,-67.65l177.78 0 0 -230.72c-0.4,-351.71 184.62,-529.28 550.01,-529.28l436.88 0c49.74,0 71.07,24.96 71.07,67.44l0 287.7c0,46.3 -21.33,67.44 -71.07,67.44l-230.9 0c-195.29,0 -234.34,42.68 -234.34,202.53l0 134.89 465.24 0c49.74,0 71.07,24.96 71.07,67.65l0 287.69c0,46.11 -21.33,67.44 -71.07,67.44l-465.24 0 0 1378.08c0,42.68 -24.98,67.44 -74.69,67.44l-376.5 0c-49.72,0 -70.86,-24.76 -70.86,-67.44l0 -1378.08z"/>
   <path class="fil0" d="M10888.92 3352.89l-774.3 0c-347.9,0 -497.07,-134.89 -497.07,-468.9l0 -35.43c-1.03,-9.52 0.08,-19.18 3.31,-28.2 3.2,-9.05 8.38,-17.25 15.21,-24 6.8,-6.75 15.03,-11.88 24.1,-15 9.08,-3.12 18.71,-4.18 28.23,-3.07l362.4 0c49.72,0 74.48,24.98 74.48,71.07l0 17.72c0,71.07 39.27,99.46 117.37,99.46l447.55 0c213.01,0 266.35,-53.15 266.35,-234.34l0 -560.29c-81.73,159.85 -237.97,241.59 -483.18,241.59l-362.37 0c-369.44,0 -532.93,-156.23 -532.93,-507.95l0 -1077.89c-0.47,-9.31 1.06,-18.61 4.53,-27.27 3.44,-8.66 8.73,-16.47 15.47,-22.9 6.75,-6.42 14.79,-11.31 23.63,-14.33 8.81,-3.02 18.18,-4.09 27.44,-3.15l380.13 0c46.09,0 71.06,24.96 71.06,67.65l0 944.01c0,184.62 39.06,220.25 259.29,220.25l269.99 0c234.34,0 326.76,-96.03 326.76,-291.32l0 -872.94c0,-42.69 24.76,-67.65 71.06,-67.65l380.29 0c9.1,-0.88 18.28,0.27 26.88,3.36 8.6,3.09 16.4,8.05 22.83,14.52 6.46,6.47 11.41,14.29 14.45,22.89 3.07,8.61 4.21,17.79 3.31,26.88l0 1960.5c-0.21,372.66 -199.13,564.73 -586.27,564.73z"/>
   <g style="clip-path:url(#id15)">
    <g>
     <g>
     </g>
     <g>
     </g>
     <g style="clip-path:url(#id16)">
      <image x="-100.59" y="-93.09" width="11677.7" height="3478.56" xlink:href="logo_Images\logo_ImgID6.png"/>
     </g>
     <g style="clip-path:url(#id17)">
     </g>
    </g>
   </g>
   <path class="fil1" d="M10888.92 3352.89l-774.3 0c-347.9,0 -497.07,-134.89 -497.07,-468.9l0 -35.43c-1.03,-9.52 0.08,-19.18 3.31,-28.2 3.2,-9.05 8.38,-17.25 15.21,-24 6.8,-6.75 15.03,-11.88 24.1,-15 9.08,-3.12 18.71,-4.18 28.23,-3.07l362.4 0c49.72,0 74.48,24.98 74.48,71.07l0 17.72c0,71.07 39.27,99.46 117.37,99.46l447.55 0c213.01,0 266.35,-53.15 266.35,-234.34l0 -560.29c-81.73,159.85 -237.97,241.59 -483.18,241.59l-362.37 0c-369.44,0 -532.93,-156.23 -532.93,-507.95l0 -1077.89c-0.47,-9.31 1.06,-18.61 4.53,-27.27 3.44,-8.66 8.73,-16.47 15.47,-22.9 6.75,-6.42 14.79,-11.31 23.63,-14.33 8.81,-3.02 18.18,-4.09 27.44,-3.15l380.13 0c46.09,0 71.06,24.96 71.06,67.65l0 944.01c0,184.62 39.06,220.25 259.29,220.25l269.99 0c234.34,0 326.76,-96.03 326.76,-291.32l0 -872.94c0,-42.69 24.76,-67.65 71.06,-67.65l380.29 0c9.1,-0.88 18.28,0.27 26.88,3.36 8.6,3.09 16.4,8.05 22.83,14.52 6.46,6.47 11.41,14.29 14.45,22.89 3.07,8.61 4.21,17.79 3.31,26.88l0 1960.5c-0.21,372.66 -199.13,564.73 -586.27,564.73z"/>
  </g>
 </g>
</svg>
